<svg width="60" height="69" fill="none" xmlns="http://www.w3.org/2000/svg"><path d="M23.375 60c-1.195 0-2.125 1.063-2.125 2.125V68.5h4.25v-6.375c0-1.063-1.063-2.125-2.125-2.125Zm12.75 0C34.93 60 34 61.063 34 62.125c0 1.195.93 2.125 2.125 2.125 1.063 0 2.125-.93 2.125-2.125 0-1.063-1.063-2.125-2.125-2.125ZM21.781 23.344l1.063 3.32c.133.531.797.531.93 0l1.195-3.32 3.187-1.063c.532-.133.532-.797 0-.93l-3.187-1.195-1.196-3.187c-.132-.532-.796-.532-.93 0l-1.062 3.187-3.32 1.196c-.531.132-.531.796 0 .93l3.32 1.062Zm22.844 19.125A25.468 25.468 0 0 1 29.75 47.25c-5.578 0-10.758-1.727-15.008-4.781A23.017 23.017 0 0 0 0 63.984 4.478 4.478 0 0 0 4.516 68.5H17V60c0-2.258 1.86-4.25 4.25-4.25h17c2.258 0 4.25 1.992 4.25 4.25v8.5h12.352c2.523 0 4.648-1.992 4.648-4.516 0-9.828-6.242-18.195-14.875-21.515ZM8.5 30.25h1.727C13.547 37.82 20.984 43 29.75 43c8.633 0 16.07-5.18 19.39-12.75H51c1.063 0 2.125-.93 2.125-2.125v-12.75c0-1.063-1.063-2.125-2.125-2.125h-1.86C45.82 5.812 38.384.5 29.75.5c-8.766 0-16.203 5.313-19.523 12.75H8.5c-1.195 0-2.125 1.063-2.125 2.125v12.75c0 1.195.93 2.125 2.125 2.125Zm5.313-11.688c0-2.921 2.789-5.312 6.374-5.312h19.125c3.454 0 6.376 2.39 6.376 5.313v3.187c0 7.04-5.711 12.75-12.75 12.75h-6.376c-7.039 0-12.75-5.71-12.75-12.75v-3.188Z" fill="#00DD7D"/></svg>