<svg width="68" height="61" fill="none" xmlns="http://www.w3.org/2000/svg"><path d="M6.375 50.688c0 1.859 1.328 3.187 3.188 3.187h55.25c1.726 0 3.187 1.46 3.187 3.188 0 1.859-1.46 3.187-3.188 3.187H9.563A9.523 9.523 0 0 1 0 50.687V3.938C0 2.212 1.328.75 3.188.75c1.726 0 3.187 1.46 3.187 3.188v46.75Zm38.25-13.68c-1.195 1.328-3.188 1.328-4.383 0L29.617 26.516 19.125 37.008c-1.195 1.328-3.188 1.328-4.383 0-1.328-1.196-1.328-3.188 0-4.516l12.75-12.75c.531-.531 1.328-.93 2.125-.93.93 0 1.727.399 2.258.93L42.5 30.367 58.305 14.43c1.195-1.196 3.187-1.196 4.383 0 1.328 1.328 1.328 3.32 0 4.515L44.624 37.008Z" fill="#00DD7D"/></svg>