<svg width="136" height="41" fill="none" xmlns="http://www.w3.org/2000/svg"><path d="M20.186 9.215c-4.631 0-9.608 2.164-12.444 7.051-.693 1.114-1.105 2.783-1.383 4.02l-.137-.062c.277-1.236.552-2.906.552-4.142v-6.37H0V40.63h6.774V29.066c0-11.566 7.605-13.79 11.13-13.79 4.7 0 7.121 3.71 7.121 9.585v15.77H31.8v-15.77c0-8.162-2.904-15.646-11.613-15.646ZM53.25 9.338c-10.231-.062-19.08 5.134-19.08 15.831C34.17 35.867 43.019 41 53.25 41 63.482 41 72.4 35.867 72.4 25.17c0-10.697-8.85-15.77-19.15-15.831Zm0 26.47c-6.843 0-12.304-3.401-12.304-10.639 0-7.238 5.945-10.761 12.304-10.7 6.568.062 12.375 3.71 12.375 10.7 0 6.99-5.67 10.638-12.375 10.638ZM93.18 9.338C82.95 9.276 74.1 14.472 74.1 25.169 74.1 35.867 82.95 41 93.18 41c10.232 0 19.15-5.133 19.15-15.831 0-10.697-8.849-15.77-19.15-15.831Zm0 5.134c3.66.034 7.081 1.184 9.395 3.4L81.198 28.014a12.176 12.176 0 0 1-.321-2.843c0-6.987 5.944-10.761 12.304-10.7Zm0 21.335c-3.851 0-7.265-1.077-9.515-3.311l21.519-10.21c.239.888.369 1.847.369 2.883 0 7.113-5.67 10.638-12.375 10.638h.003ZM128.572 34.942c-2.143 0-3.803-.62-3.803-3.34v-16.45h8.78V9.463h-12.235c-1.382 0-3.248.185-4.63.433v-.123c1.382-.248 3.317-.433 4.493-1.114 3.18-1.918 4.908-5.256 5.046-8.659l-6.843.061c0 4.269-4.01 9.4-7.19 9.4h-1.313v5.69h7.12v15.274c0 7.175 1.866 10.204 10.922 10.204h6.29v-5.69h-6.637v.003Z" fill="#00DD7D"/></svg>