<svg width="71" height="70" fill="none" xmlns="http://www.w3.org/2000/svg"><path d="M55.188 20.625c0 3.055-2.391 5.313-5.313 5.313-3.055 0-5.313-2.258-5.313-5.313 0-2.922 2.258-5.313 5.313-5.313 2.922 0 5.313 2.391 5.313 5.313ZM4.054 39.75c-1.063 0-2.125-.531-2.657-1.594-.664-.93-.664-2.125 0-3.187L8.305 23.28c1.726-2.922 4.914-4.781 8.234-4.781h10.89c.4-.531.665-.93 1.063-1.46C39.382.968 55.586.437 65.148 2.296a3.664 3.664 0 0 1 3.055 3.055c1.86 9.562 1.328 25.765-14.742 36.656-.531.398-1.063.664-1.461 1.062v10.89c0 3.321-1.86 6.509-4.781 8.235L35.53 69.102c-1.062.53-2.258.664-3.187 0a3.097 3.097 0 0 1-1.727-2.79v-12.75c-1.062.532-2.125.93-3.055 1.329-1.46.664-3.32.265-4.515-.93l-6.774-6.64c-1.195-1.329-1.593-3.055-.796-4.65.265-.796.664-1.858 1.195-2.921H4.055ZM62.227 8.273c-8.368-1.195-20.188.133-28.555 12.352-3.984 5.977-9.031 17-11.82 23.242l4.648 4.649c6.242-2.657 17.398-7.703 23.375-11.82C62.094 28.46 63.422 16.64 62.227 8.272Z" fill="#00DD7D"/></svg>