<svg width="64" height="69" fill="none" xmlns="http://www.w3.org/2000/svg"><path d="M59.89 11.656 34.39 1.031A7.52 7.52 0 0 0 32 .633c-.93 0-1.727.133-2.523.398l-25.5 10.625C1.586 12.72.125 14.976.125 17.5c0 34.266 25.102 51 31.742 51 6.64 0 32.008-16.469 32.008-51 0-2.523-1.594-4.781-3.984-5.844ZM32 62.125C18.984 56.812 6.5 40.078 6.5 17.5L32 6.875 57.5 17.5c0 23.11-13.148 39.445-25.5 44.625Zm-7.438-28.82c-.53-.532-1.328-.93-2.125-.93-1.859 0-3.187 1.46-3.187 3.188 0 .93.266 1.726.93 2.257l6.375 6.375c.53.664 1.328.93 2.258.93.265 0 1.46-.133 2.39-1.195l12.75-14.875c.531-.532.797-1.328.797-1.992 0-1.063-.797-3.188-3.188-3.188-.93 0-1.859.266-2.523 1.063L28.547 37.288l-3.985-3.984Z" fill="#00DD7D"/></svg>